HIERARCHY
ROOT hip
{
	OFFSET 0.000000 0.000000 0.000000 
	CHANNELS 6 Xposition Yposition Zposition Xrotation Zrotation Yrotation
	JOINT abdomen
	{
		OFFSET 0.000000 3.402643 0.000000 
		CHANNELS 3 Xrotation Zrotation Yrotation
		JOINT chest
		{
			OFFSET 0.000000 8.438565 -0.680529 
			CHANNELS 3 Xrotation Zrotation Yrotation
			JOINT neck
			{
				OFFSET 0.000000 10.207942 -0.272212 
				CHANNELS 3 Xrotation Zrotation Yrotation
				JOINT head
				{
					OFFSET 0.000000 3.130431 0.000000 
					CHANNELS 3 Xrotation Zrotation Yrotation
					End Site
					{
						OFFSET 0.000000 3.130435 0.000000 
					}
				}
			}
			JOINT lCollar
			{
				OFFSET 3.470700 6.669187 -0.816635 
				CHANNELS 3 Yrotation Zrotation Xrotation
				JOINT lShldr
				{
					OFFSET 3.198488 0.000000 0.000000 
					CHANNELS 3 Zrotation Yrotation Xrotation
					JOINT lForeArm
					{
						OFFSET 10.139888 0.000000 0.000000 
						CHANNELS 3 Yrotation Zrotation Xrotation
						JOINT lHand
						{
							OFFSET 8.370511 0.000000 0.000000 
							CHANNELS 3 Zrotation Yrotation Xrotation
							End Site
							{
								OFFSET 4.083176 0.000000 0.000000 
							}
						}
					}
				}
			}
			JOINT rCollar
			{
				OFFSET -3.470700 6.669187 -0.816635 
				CHANNELS 3 Yrotation Zrotation Xrotation
				JOINT rShldr
				{
					OFFSET -3.198488 0.000000 0.000000 
					CHANNELS 3 Zrotation Yrotation Xrotation
					JOINT rForeArm
					{
						OFFSET -10.139888 0.000000 0.000000 
						CHANNELS 3 Yrotation Zrotation Xrotation
						JOINT rHand
						{
							OFFSET -8.370511 0.000000 0.000000 
							CHANNELS 3 Zrotation Yrotation Xrotation
							End Site
							{
								OFFSET -4.083176 0.000000 0.000000 
							}
						}
					}
				}
			}
		}
	}
	JOINT lThigh
	{
		OFFSET 5.308129 -1.633274 1.361059 
		CHANNELS 3 Xrotation Zrotation Yrotation
		JOINT lShin
		{
			OFFSET -2.041588 -20.007561 0.000000 
			CHANNELS 3 Xrotation Zrotation Yrotation
			JOINT lFoot
			{
				OFFSET 0.000000 -19.190928 -1.224953 
				CHANNELS 3 Xrotation Yrotation Zrotation
				End Site
				{
					OFFSET 0.000000 -2.449906 4.627600 
				}
			}
		}
	}
	JOINT rThigh
	{
		OFFSET -5.308129 -1.633274 1.361059 
		CHANNELS 3 Xrotation Zrotation Yrotation
		JOINT rShin
		{
			OFFSET 2.041588 -20.007561 0.000000 
			CHANNELS 3 Xrotation Zrotation Yrotation
			JOINT rFoot
			{
				OFFSET 0.000000 -19.190928 -1.224953 
				CHANNELS 3 Xrotation Yrotation Zrotation
				End Site
				{
					OFFSET 0.000000 -2.449906 4.627600 
				}
			}
		}
	}
}
MOTION
Frames: 19
Frame Time: 0.033333
-7.494942 46.212875 23.248405 -13.712172 20.686766 45.835735 0.000000 0.000000 0.000000 38.335056 1.884816 21.109104 -22.899935 -6.973156 -2.928005 14.483990 -1.321138 -6.103045 -3.519355 9.157742 6.311733 88.177589 -26.007542 -133.333267 -20.360630 3.051025 -33.185383 -11.590736 -20.306396 -3.147263 3.090466 -14.082293 8.028685 76.239494 58.945675 58.512894 31.702921 -25.925415 -16.315603 29.743288 7.407425 -2.398820 -66.501770 15.270598 39.091240 77.852226 -12.537993 -62.691071 0.938438 0.650792 -12.230018 -0.303827 -8.254842 -15.798246 35.108540 2.185266 10.507890 -10.534733 1.120795 -8.348214 
-7.484295 46.199200 23.188078 -13.725984 20.609194 46.025410 0.000000 0.000000 0.000000 38.231972 2.048702 21.046862 -22.881750 -6.999570 -2.907944 14.435104 -1.301823 -6.109699 -3.519355 9.157742 6.311733 88.075409 -26.224398 -133.185806 -20.451374 3.121621 -33.211262 -11.320666 -20.258635 -3.225078 3.090466 -14.082293 8.028685 75.853264 58.770294 58.527187 31.798889 -26.005804 -16.380325 29.657372 7.602917 -2.356855 -66.552452 15.341433 39.250263 77.994392 -12.583178 -62.824871 1.026960 0.660893 -12.337690 -0.420954 -8.274020 -15.837720 35.240776 2.214089 10.621335 -10.497725 1.115791 -8.317564 
-7.467547 46.167976 23.144598 -13.760666 20.644625 46.266636 0.000000 0.000000 0.000000 38.265297 2.185895 20.922684 -23.081783 -7.068396 -2.895224 14.581384 -1.194641 -6.170185 -3.519355 9.157742 6.311733 87.905937 -26.308531 -133.184570 -20.456188 3.131447 -33.081799 -11.193499 -20.309910 -3.259042 3.090466 -14.082293 8.028685 75.629578 58.721378 58.330437 31.846550 -26.059992 -16.382349 29.447206 7.545350 -2.415352 -66.500435 15.366431 39.469975 78.152977 -12.579612 -62.772552 1.066933 0.652734 -12.443260 -0.391135 -8.230751 -15.815431 35.273964 2.165688 10.269767 -10.926051 1.164113 -8.453367 
-7.445545 46.138309 23.077457 -13.744393 20.808409 46.607735 0.000000 0.000000 0.000000 38.373447 2.205630 20.769175 -22.785242 -6.872621 -3.065540 14.278707 -1.253592 -6.169673 -3.519355 9.157742 6.311733 87.922913 -26.363249 -133.338638 -20.449039 3.132202 -33.003929 -11.401800 -20.309519 -3.198204 3.090466 -14.082293 8.028685 75.198921 58.597244 57.604893 31.830837 -26.016977 -16.478134 29.508657 7.238215 -2.506961 -66.396332 15.195070 39.582710 78.113060 -12.639996 -62.601318 1.317209 0.645876 -12.821280 -0.371883 -8.346504 -15.882607 35.472229 2.097045 9.980287 -11.023812 1.170505 -8.473707 
-7.433148 46.110302 23.009466 -13.742822 20.904118 46.957157 0.000000 0.000000 0.000000 38.505272 2.354604 20.788136 -22.383858 -6.932070 -3.131468 13.887747 -1.127999 -6.247072 -3.519355 9.157742 6.311733 87.921638 -26.490269 -133.565414 -20.467045 3.160533 -32.800240 -11.499257 -20.382441 -3.161345 3.090466 -14.082293 8.028685 74.550964 58.442314 56.613060 31.684772 -25.873638 -16.415037 29.453999 7.349174 -2.480898 -66.277191 15.075506 39.615891 78.092537 -12.708549 -62.497753 1.392148 0.642473 -12.913310 -0.401480 -8.353846 -15.863084 35.598145 1.989669 9.548676 -11.097713 1.182478 -8.447427 
-7.413560 46.087067 22.984768 -13.812438 20.974878 47.335270 0.000000 0.000000 0.000000 38.657509 2.517588 20.762630 -22.359306 -6.849902 -3.219866 13.839209 -1.283685 -6.260389 -3.519355 9.157742 6.311733 87.876923 -26.540293 -133.439301 -20.481094 3.149665 -32.948799 -11.409311 -20.448818 -3.175415 3.090466 -14.082293 8.028685 74.198082 58.260715 55.932236 31.521255 -25.724760 -16.226215 29.268635 7.620066 -2.425042 -66.195656 14.982503 39.609478 78.232887 -12.558401 -62.398438 1.413042 0.641029 -13.016852 -0.284043 -8.171525 -15.763211 35.601032 1.862557 8.715964 -11.621440 1.233170 -8.518540 
-7.408875 46.067623 22.965748 -13.665018 21.082542 47.688457 0.000000 0.000000 0.000000 38.729950 2.347249 20.592272 -22.334661 -6.543216 -3.347362 13.712556 -1.439572 -6.164055 -3.519355 9.157742 6.311733 87.855316 -26.481314 -133.201523 -20.457254 3.122206 -33.035576 -11.250593 -20.387047 -3.232419 3.090466 -14.082293 8.028685 73.979599 58.126522 55.637810 31.443838 -25.648958 -16.285927 29.471149 7.587959 -2.395623 -66.152237 14.912271 39.714970 78.355408 -12.445301 -62.419651 1.380563 0.646780 -12.964108 -0.459964 -7.991766 -15.483629 35.764713 1.511177 7.640582 -12.235877 1.281796 -8.559814 
-7.412471 46.052197 22.949047 -13.472170 21.155577 48.214764 0.000000 0.000000 0.000000 38.747757 2.293294 20.218288 -22.249863 -6.632505 -3.351978 13.643828 -1.274351 -6.225857 -3.519355 9.157742 6.311733 87.721420 -26.572029 -133.243561 -20.491100 3.158534 -32.955757 -11.316498 -20.346924 -3.222005 3.090466 -14.082293 8.028685 73.889275 57.994438 55.745579 31.421270 -25.616686 -16.357758 29.522438 7.575088 -2.391848 -66.011581 14.730550 39.874748 78.456177 -12.345535 -62.298340 1.367409 0.647733 -13.005843 -0.703541 -7.770834 -15.142657 35.965530 1.100663 6.576949 -12.443813 1.256266 -8.325951 
-7.422124 46.052853 22.940056 -13.277429 21.094578 49.034431 0.000000 0.000000 0.000000 38.652306 2.365064 19.585634 -22.307238 -6.623692 -3.430702 13.741549 -1.293610 -6.298139 -3.519355 9.157742 6.311733 87.764915 -26.722946 -133.504974 -20.503719 3.167653 -32.884636 -11.123163 -20.191420 -3.302020 3.090466 -14.082293 8.028685 74.183174 57.867760 56.122868 31.488115 -25.694839 -16.301971 29.376701 7.407843 -2.466088 -66.014908 14.413088 39.777065 78.506165 -12.285396 -62.256149 1.666054 0.642202 -13.411752 -0.870014 -7.552629 -14.980293 35.983147 0.930808 5.585218 -12.437148 1.196063 -8.018906 
-7.457989 46.060329 22.939014 -13.108191 20.964237 49.691608 0.000000 0.000000 0.000000 38.544598 2.360966 19.067307 -22.166325 -6.367795 -3.623051 13.683591 -1.585546 -6.264196 -3.519355 9.157742 6.311733 87.699951 -26.899076 -133.596100 -20.520218 3.175703 -32.988972 -10.988482 -20.103388 -3.348987 3.090466 -14.082293 8.028685 74.392029 57.788586 56.533501 31.747126 -25.943148 -16.425308 29.725662 6.951809 -2.561466 -66.021530 14.360140 39.636158 78.525787 -12.284761 -62.335709 1.851640 0.610443 -13.592265 -1.035375 -7.361600 -14.908863 35.918190 0.886127 4.957021 -12.596652 1.212587 -7.915126 
-7.506486 46.062275 22.948051 -12.987217 20.782005 50.139351 0.000000 0.000000 0.000000 38.465954 2.348234 18.641790 -22.095875 -6.121099 -3.760917 13.567208 -1.906889 -6.191207 -3.519355 9.157742 6.311733 87.286499 -27.119928 -133.120789 -20.587820 3.218818 -33.081799 -10.787961 -20.055475 -3.419379 3.090466 -14.082293 8.028685 74.627892 57.841667 57.045521 31.960350 -26.163948 -16.450912 29.593761 6.609063 -2.691620 -65.903992 14.603698 39.588009 78.496338 -12.265184 -62.144543 1.768530 0.613988 -13.490557 -1.191789 -7.148022 -14.836689 35.814056 0.886075 4.592746 -12.708569 1.184817 -7.843829 
-7.480795 46.049976 23.000145 -12.776984 20.529585 50.620274 0.000000 0.000000 0.000000 38.048672 2.446427 18.017271 -21.981607 -6.162265 -3.633933 13.391524 -1.975508 -6.093412 -3.519355 9.157742 6.311733 86.576042 -27.545481 -132.206284 -20.689861 3.318340 -32.816204 -10.558400 -20.003477 -3.486603 3.090466 -14.082293 8.028685 75.442818 57.861279 57.973068 31.966570 -26.172005 -16.354986 29.112104 6.584156 -2.784144 -65.688103 14.630898 39.790897 78.600632 -12.054988 -61.849079 0.172170 0.727980 -11.580999 -1.426004 -7.121877 -14.972713 35.946194 0.993279 4.427909 -12.822175 1.161680 -7.650486 
-7.462766 46.060055 23.036245 -12.484657 20.282543 51.149540 0.000000 0.000000 0.000000 37.638367 2.460060 17.560259 -22.084667 -6.483316 -3.482736 13.830010 -1.536556 -6.214967 -3.519355 9.157742 6.311733 85.898109 -27.967901 -131.272507 -20.784924 3.398419 -32.731224 -10.368116 -20.016235 -3.540444 3.090466 -14.082293 8.028685 75.711044 57.745083 57.986244 31.914019 -26.128437 -16.275209 29.001505 6.815716 -2.734018 -65.497520 14.677256 39.949390 78.719910 -11.944432 -61.884811 -1.431206 0.752492 -9.567201 -1.679891 -7.229939 -15.175501 35.995911 1.165167 4.346522 -12.756829 1.120914 -7.452082 
-7.555031 46.072449 23.020113 -12.388492 20.126358 51.587902 0.000000 0.000000 0.000000 37.835571 2.507573 17.473812 -22.459776 -6.125678 -3.720613 14.465540 -1.719481 -6.211882 -3.519355 9.157742 6.311733 85.245277 -28.063753 -130.648743 -20.798822 3.406189 -32.914097 -10.388568 -19.949986 -3.546767 3.090466 -14.082293 8.028685 74.815506 57.743587 56.386402 32.050835 -26.283564 -15.873770 28.800169 6.985845 -2.715780 -65.260269 15.073350 39.784992 78.458069 -12.059204 -61.998482 -1.374129 0.740177 -9.570601 -1.757677 -7.027782 -15.194884 35.647530 1.210874 3.953970 -12.767408 1.119595 -7.442054 
-7.615311 46.070271 23.028299 -12.299431 20.055897 52.122055 0.000000 0.000000 0.000000 38.009319 2.717380 17.239573 -22.430866 -5.729791 -4.019546 14.505636 -2.020490 -6.195372 -3.519355 9.157742 6.311733 84.295456 -28.283722 -129.866531 -20.847038 3.440868 -32.990093 -9.969464 -19.782436 -3.690223 3.090466 -14.082293 8.028685 73.632790 57.623726 54.394867 32.117908 -26.380234 -15.451592 28.519156 7.086125 -2.731081 -64.998932 15.320794 39.601013 78.131027 -12.124127 -61.748802 -1.179499 0.733421 -9.756991 -1.826038 -6.842690 -15.155246 35.536861 1.171752 3.518930 -12.809699 1.126833 -7.417226 
-7.613324 46.081863 23.086590 -12.197853 19.957428 52.753052 0.000000 0.000000 0.000000 37.913589 3.021852 16.999958 -22.163631 -5.744109 -4.203541 14.289979 -1.817190 -6.362774 -3.519355 9.157742 6.311733 83.285576 -28.749821 -128.758453 -20.953770 3.539120 -32.879570 -9.251334 -19.691252 -3.906809 3.090466 -14.082293 8.028685 72.084633 57.118530 52.205059 32.136547 -26.394642 -15.367366 28.198259 7.043004 -2.805218 -64.793129 15.554010 39.397285 78.009254 -12.059240 -61.576588 -1.389336 0.729781 -9.491113 -1.913990 -6.618227 -15.103954 35.610855 1.093528 2.868264 -12.779325 1.088639 -7.152814 
-7.656191 46.108360 23.152639 -12.243563 19.743155 53.192703 0.000000 0.000000 0.000000 37.976471 3.343190 16.991379 -22.838938 -5.506820 -4.380569 14.534054 -1.758123 -6.423050 -3.519355 9.157742 6.311733 82.169098 -29.123930 -127.662560 -21.053034 3.658036 -32.441223 -9.080163 -19.647398 -3.956674 3.090466 -14.082293 8.028685 69.821922 56.594128 49.185223 32.143681 -26.346582 -15.402306 27.659996 6.852201 -2.956087 -64.538086 16.304083 39.106022 77.691551 -12.153364 -61.417019 -0.622531 0.737392 -10.420959 -2.040484 -6.039194 -14.818201 35.472359 0.898307 1.918995 -12.641257 1.018601 -6.837739 
-7.689405 46.121986 23.213678 -12.124864 19.415400 53.700294 0.000000 0.000000 0.000000 37.715977 3.633717 16.849461 -23.309208 -5.292902 -4.551758 14.670266 -1.573174 -6.475978 -3.519355 9.157742 6.311733 80.730309 -29.625523 -126.166748 -21.123684 3.710446 -32.461441 -9.526052 -19.581808 -3.839978 3.090466 -14.082293 8.028685 67.188042 55.924858 45.524071 31.955235 -26.111216 -15.447895 26.989258 6.978310 -3.037992 -64.218193 17.118711 38.814983 77.236961 -12.342791 -61.113186 0.302682 0.684091 -11.509750 -2.294485 -5.455813 -14.447462 35.248428 0.703020 1.150320 -13.211490 1.063228 -7.008667 
-7.691534 46.125626 23.284933 -11.806325 19.033194 54.199154 0.000000 0.000000 0.000000 36.929398 3.969235 16.201248 -22.728485 -5.475563 -4.475466 14.063654 -1.176280 -6.548153 -3.519355 9.157742 6.311733 78.156487 -30.898247 -123.142761 -21.331301 3.954907 -31.921944 -9.763932 -19.891766 -3.737358 3.090466 -14.082293 8.028685 65.027718 55.043339 41.937508 31.612345 -25.705662 -15.502938 26.145136 6.853754 -3.220721 -63.745308 17.990971 38.486317 76.697830 -12.432612 -60.395218 1.184950 0.646978 -12.513954 -2.654923 -5.121476 -14.309395 35.113426 0.615293 0.593127 -14.077074 1.165913 -7.350780 
